<?xml version="1.0" encoding="UTF-8" standalone="no"?>
<!-- Created with Inkscape (http://www.inkscape.org/) -->

<svg
   xmlns:dc="http://purl.org/dc/elements/1.1/"
   xmlns:cc="http://creativecommons.org/ns#"
   xmlns:rdf="http://www.w3.org/1999/02/22-rdf-syntax-ns#"
   xmlns:svg="http://www.w3.org/2000/svg"
   xmlns="http://www.w3.org/2000/svg"
   xmlns:sodipodi="http://sodipodi.sourceforge.net/DTD/sodipodi-0.dtd"
   xmlns:inkscape="http://www.inkscape.org/namespaces/inkscape"
   sodipodi:docname="icon-componentes.svg"
   inkscape:version="0.91 r13725"
   version="1.1"
   id="svg2"
   viewBox="0 0 150 150"
   height="150"
   width="150">
  <defs
     id="defs4">
    <clipPath
       clipPathUnits="userSpaceOnUse"
       id="clipPath4969">
      <rect
         style="opacity:1;fill:#3bb3c2;fill-opacity:1;stroke:none;stroke-width:3.9000001;stroke-miterlimit:10;stroke-dasharray:none;stroke-dashoffset:0;stroke-opacity:1"
         id="rect4971"
         width="1090.9647"
         height="337.39093"
         x="-565.68549"
         y="-582.06458" />
    </clipPath>
    <clipPath
       clipPathUnits="userSpaceOnUse"
       id="clipPath4969-9">
      <rect
         style="opacity:1;fill:#3bb3c2;fill-opacity:1;stroke:none;stroke-width:3.9000001;stroke-miterlimit:10;stroke-dasharray:none;stroke-dashoffset:0;stroke-opacity:1"
         id="rect4971-1"
         width="1090.9647"
         height="337.39093"
         x="-565.68549"
         y="-582.06458" />
    </clipPath>
    <clipPath
       clipPathUnits="userSpaceOnUse"
       id="clipPath4969-93">
      <rect
         style="opacity:1;fill:#3bb3c2;fill-opacity:1;stroke:none;stroke-width:3.9000001;stroke-miterlimit:10;stroke-dasharray:none;stroke-dashoffset:0;stroke-opacity:1"
         id="rect4971-6"
         width="1090.9647"
         height="337.39093"
         x="-565.68549"
         y="-582.06458" />
    </clipPath>
    <clipPath
       clipPathUnits="userSpaceOnUse"
       id="clipPath4969-6">
      <rect
         style="opacity:1;fill:#3bb3c2;fill-opacity:1;stroke:none;stroke-width:3.9000001;stroke-miterlimit:10;stroke-dasharray:none;stroke-dashoffset:0;stroke-opacity:1"
         id="rect4971-18"
         width="1090.9647"
         height="337.39093"
         x="-565.68549"
         y="-582.06458" />
    </clipPath>
    <clipPath
       clipPathUnits="userSpaceOnUse"
       id="clipPath4969-2">
      <rect
         style="opacity:1;fill:#3bb3c2;fill-opacity:1;stroke:none;stroke-width:3.9000001;stroke-miterlimit:10;stroke-dasharray:none;stroke-dashoffset:0;stroke-opacity:1"
         id="rect4971-3"
         width="1090.9647"
         height="337.39093"
         x="-565.68549"
         y="-582.06458" />
    </clipPath>
    <clipPath
       clipPathUnits="userSpaceOnUse"
       id="clipPath4969-97">
      <rect
         style="opacity:1;fill:#3bb3c2;fill-opacity:1;stroke:none;stroke-width:3.9000001;stroke-miterlimit:10;stroke-dasharray:none;stroke-dashoffset:0;stroke-opacity:1"
         id="rect4971-36"
         width="1090.9647"
         height="337.39093"
         x="-565.68549"
         y="-582.06458" />
    </clipPath>
    <clipPath
       clipPathUnits="userSpaceOnUse"
       id="clipPath4969-3">
      <rect
         style="opacity:1;fill:#3bb3c2;fill-opacity:1;stroke:none;stroke-width:3.9000001;stroke-miterlimit:10;stroke-dasharray:none;stroke-dashoffset:0;stroke-opacity:1"
         id="rect4971-19"
         width="1090.9647"
         height="337.39093"
         x="-565.68549"
         y="-582.06458" />
    </clipPath>
  </defs>
  <sodipodi:namedview
     inkscape:window-maximized="1"
     inkscape:window-y="33"
     inkscape:window-x="1436"
     inkscape:window-height="1047"
     inkscape:window-width="1850"
     showgrid="false"
     inkscape:current-layer="g4382"
     inkscape:document-units="px"
     inkscape:cy="54.035283"
     inkscape:cx="51.56175"
     inkscape:zoom="4"
     inkscape:pageshadow="2"
     inkscape:pageopacity="0.0"
     borderopacity="1.0"
     bordercolor="#666666"
     pagecolor="#ffffff"
     id="base"
     showguides="true"
     inkscape:guide-bbox="true"
     inkscape:snap-global="false"
     inkscape:snap-bbox="true"
     inkscape:bbox-paths="true"
     inkscape:bbox-nodes="true"
     inkscape:snap-bbox-edge-midpoints="true"
     inkscape:snap-bbox-midpoints="true"
     inkscape:snap-intersection-paths="true"
     inkscape:object-paths="true"
     inkscape:object-nodes="true"
     inkscape:snap-smooth-nodes="true"
     inkscape:snap-midpoints="true"
     inkscape:snap-object-midpoints="true"
     inkscape:snap-center="true"
     units="px">
    <sodipodi:guide
       position="0,623.31462"
       orientation="1,0"
       id="guide4211"
       inkscape:label=""
       inkscape:color="rgb(0,0,255)" />
    <sodipodi:guide
       position="150,637.41257"
       orientation="1,0"
       id="guide4213"
       inkscape:label=""
       inkscape:color="rgb(0,0,255)" />
    <sodipodi:guide
       position="9.5017475,0"
       orientation="0,1"
       id="guide4215"
       inkscape:label=""
       inkscape:color="rgb(0,0,255)" />
    <sodipodi:guide
       position="0.061000001,150"
       orientation="0,1"
       id="guide4227"
       inkscape:label=""
       inkscape:color="rgb(0,0,255)" />
    <sodipodi:guide
       position="73.185553,0"
       orientation="0,1"
       id="guide4327" />
    <sodipodi:guide
       position="0,127.50003"
       orientation="0,1"
       id="guide4217" />
    <sodipodi:guide
       position="20,127.50003"
       orientation="1,0"
       id="guide4255"
       inkscape:label=""
       inkscape:color="rgb(0,0,255)" />
    <sodipodi:guide
       position="200,127.50003"
       orientation="1,0"
       id="guide4257"
       inkscape:label=""
       inkscape:color="rgb(0,0,255)" />
    <sodipodi:guide
       position="180,127.50003"
       orientation="1,0"
       id="guide4259"
       inkscape:label=""
       inkscape:color="rgb(0,0,255)" />
    <sodipodi:guide
       position="22.5,81.75"
       orientation="1,0"
       id="guide4428"
       inkscape:label=""
       inkscape:color="rgb(0,0,255)" />
  </sodipodi:namedview>
  <metadata
     id="metadata7">
    <rdf:RDF>
      <cc:Work
         rdf:about="">
        <dc:format>image/svg+xml</dc:format>
        <dc:type
           rdf:resource="http://purl.org/dc/dcmitype/StillImage" />
        <dc:title />
      </cc:Work>
    </rdf:RDF>
  </metadata>
  <g
     inkscape:label="Layer 1"
     inkscape:groupmode="layer"
     id="layer1"
     transform="translate(0,-902.36219)">
    <g
       id="g4300"
       inkscape:transform-center-y="-83.863402"
       transform="matrix(0.70154303,0.71262709,-0.71262709,0.70154303,704.71041,270.01262)"
       inkscape:transform-center-x="-85.041471">
      <g
         id="g4309"
         inkscape:transform-center-x="-52.518036"
         inkscape:transform-center-y="59.764563"
         transform="matrix(-0.07224602,0.99738685,-0.99738685,-0.07224602,926.57908,931.62045)">
        <g
           id="g4296"
           transform="matrix(0.22283508,0.83207207,-0.83207207,0.22283508,707.58591,614.58872)"
           inkscape:transform-center-y="24.386396"
           inkscape:transform-center-x="16.621298" />
      </g>
    </g>
    <rect
       style="opacity:1;fill:#ffffff;fill-opacity:1;stroke:none;stroke-width:3.9000001;stroke-miterlimit:10;stroke-dasharray:none;stroke-dashoffset:0;stroke-opacity:1"
       id="rect4217-9-7-0"
       width="98"
       height="27.52"
       x="847.48718"
       y="44.489998"
       ry="13.76"
       transform="matrix(0,1,-1,0,0,0)" />
    <g
       id="g4361"
       inkscape:transform-center-x="-79.999997">
      <g
         id="g4382"
         inkscape:transform-center-x="-45.94436"
         transform="matrix(0.86029142,0.50980257,-0.50980257,0.86029142,474.64057,117.74062)"
         inkscape:transform-center-y="55.693368">
        <path
           style="opacity:1;fill:#000000;fill-opacity:1;stroke:none;stroke-width:3.9000001;stroke-miterlimit:10;stroke-dasharray:none;stroke-dashoffset:0;stroke-opacity:1"
           d="M 22.261719 -0.01953125 C 14.667434 0.057400943 7.3128446 3.9919753 3.1425781 11.029297 C -3.2121059 21.752821 0.30576432 35.502733 11.029297 41.857422 L 49.742188 64.796875 C 50.481533 65.235006 51.237275 65.623571 52.001953 65.96875 A 30 30 0 0 0 65.275391 82.720703 A 30 30 0 0 0 106.37891 72.205078 A 30 30 0 0 0 95.863281 31.103516 A 30 30 0 0 0 74.800781 27.507812 C 74.129034 27.001172 73.425112 26.523403 72.683594 26.083984 L 33.970703 3.1425781 C 30.284489 0.95815364 26.239682 -0.059836337 22.261719 -0.01953125 z M 20.169922 16.228516 A 5 5 0 0 1 22.898438 16.923828 A 5 5 0 0 1 24.650391 23.775391 A 5 5 0 0 1 17.800781 25.527344 A 5 5 0 0 1 16.046875 18.675781 A 5 5 0 0 1 20.169922 16.228516 z M 34.255859 24.576172 A 5 5 0 0 1 34.257812 24.576172 A 5 5 0 0 1 36.986328 25.271484 A 5 5 0 0 1 38.738281 32.123047 A 5 5 0 0 1 31.886719 33.875 A 5 5 0 0 1 30.134766 27.025391 A 5 5 0 0 1 34.255859 24.576172 z M 48.34375 32.923828 A 5 5 0 0 1 51.072266 33.619141 A 5 5 0 0 1 52.826172 40.470703 A 5 5 0 0 1 45.974609 42.222656 A 5 5 0 0 1 44.222656 35.373047 A 5 5 0 0 1 48.34375 32.923828 z M 80.388672 51.914062 A 5 5 0 0 1 80.390625 51.914062 A 5 5 0 0 1 83.119141 52.609375 A 5 5 0 0 1 84.871094 59.460938 A 5 5 0 0 1 78.021484 61.212891 A 5 5 0 0 1 76.267578 54.363281 A 5 5 0 0 1 80.388672 51.914062 z M 117.49805 72.179688 A 40.000026 40.000026 0 0 1 114.98047 77.304688 A 40.000026 40.000026 0 0 1 79.865234 96.855469 L 108.15625 139.50781 C 115.04627 149.89549 128.95606 152.71033 139.34375 145.82031 C 149.73143 138.93029 152.54627 125.02049 145.65625 114.63281 L 117.49805 72.179688 z M 110.25781 96.861328 A 5 5 0 0 1 114.35156 99.097656 A 5 5 0 0 1 112.94922 106.0293 A 5 5 0 0 1 106.01953 104.625 A 5 5 0 0 1 107.42188 97.695312 A 5 5 0 0 1 110.25781 96.861328 z M 119.30859 110.50781 A 5 5 0 0 1 123.4043 112.74414 A 5 5 0 0 1 122 119.67383 A 5 5 0 0 1 115.07031 118.27148 A 5 5 0 0 1 116.47266 111.3418 A 5 5 0 0 1 119.30859 110.50781 z M 128.35938 124.1543 A 5 5 0 0 1 132.45508 126.39062 A 5 5 0 0 1 131.05273 133.32031 A 5 5 0 0 1 124.12109 131.91797 A 5 5 0 0 1 125.52539 124.98633 A 5 5 0 0 1 128.35938 124.1543 z "
           transform="matrix(0.86029143,-0.50980258,0.50980258,0.86029143,-8.3271172,916.9762)"
           id="rect4194-3" />
      </g>
    </g>
  </g>
</svg>
