<?xml version="1.0" encoding="UTF-8" standalone="no"?>
<!-- Created with Inkscape (http://www.inkscape.org/) -->

<svg
   xmlns:dc="http://purl.org/dc/elements/1.1/"
   xmlns:cc="http://creativecommons.org/ns#"
   xmlns:rdf="http://www.w3.org/1999/02/22-rdf-syntax-ns#"
   xmlns:svg="http://www.w3.org/2000/svg"
   xmlns="http://www.w3.org/2000/svg"
   xmlns:sodipodi="http://sodipodi.sourceforge.net/DTD/sodipodi-0.dtd"
   xmlns:inkscape="http://www.inkscape.org/namespaces/inkscape"
   sodipodi:docname="icon-clinicas.svg"
   inkscape:version="0.91 r13725"
   version="1.1"
   id="svg2"
   viewBox="0 0 150 150"
   height="150"
   width="150">
  <defs
     id="defs4">
    <clipPath
       clipPathUnits="userSpaceOnUse"
       id="clipPath4969">
      <rect
         style="opacity:1;fill:#3bb3c2;fill-opacity:1;stroke:none;stroke-width:3.9000001;stroke-miterlimit:10;stroke-dasharray:none;stroke-dashoffset:0;stroke-opacity:1"
         id="rect4971"
         width="1090.9647"
         height="337.39093"
         x="-565.68549"
         y="-582.06458" />
    </clipPath>
    <clipPath
       clipPathUnits="userSpaceOnUse"
       id="clipPath4969-9">
      <rect
         style="opacity:1;fill:#3bb3c2;fill-opacity:1;stroke:none;stroke-width:3.9000001;stroke-miterlimit:10;stroke-dasharray:none;stroke-dashoffset:0;stroke-opacity:1"
         id="rect4971-1"
         width="1090.9647"
         height="337.39093"
         x="-565.68549"
         y="-582.06458" />
    </clipPath>
    <clipPath
       clipPathUnits="userSpaceOnUse"
       id="clipPath4969-93">
      <rect
         style="opacity:1;fill:#3bb3c2;fill-opacity:1;stroke:none;stroke-width:3.9000001;stroke-miterlimit:10;stroke-dasharray:none;stroke-dashoffset:0;stroke-opacity:1"
         id="rect4971-6"
         width="1090.9647"
         height="337.39093"
         x="-565.68549"
         y="-582.06458" />
    </clipPath>
    <clipPath
       clipPathUnits="userSpaceOnUse"
       id="clipPath4969-6">
      <rect
         style="opacity:1;fill:#3bb3c2;fill-opacity:1;stroke:none;stroke-width:3.9000001;stroke-miterlimit:10;stroke-dasharray:none;stroke-dashoffset:0;stroke-opacity:1"
         id="rect4971-18"
         width="1090.9647"
         height="337.39093"
         x="-565.68549"
         y="-582.06458" />
    </clipPath>
    <clipPath
       clipPathUnits="userSpaceOnUse"
       id="clipPath4969-2">
      <rect
         style="opacity:1;fill:#3bb3c2;fill-opacity:1;stroke:none;stroke-width:3.9000001;stroke-miterlimit:10;stroke-dasharray:none;stroke-dashoffset:0;stroke-opacity:1"
         id="rect4971-3"
         width="1090.9647"
         height="337.39093"
         x="-565.68549"
         y="-582.06458" />
    </clipPath>
    <clipPath
       clipPathUnits="userSpaceOnUse"
       id="clipPath4969-97">
      <rect
         style="opacity:1;fill:#3bb3c2;fill-opacity:1;stroke:none;stroke-width:3.9000001;stroke-miterlimit:10;stroke-dasharray:none;stroke-dashoffset:0;stroke-opacity:1"
         id="rect4971-36"
         width="1090.9647"
         height="337.39093"
         x="-565.68549"
         y="-582.06458" />
    </clipPath>
    <clipPath
       clipPathUnits="userSpaceOnUse"
       id="clipPath4969-3">
      <rect
         style="opacity:1;fill:#3bb3c2;fill-opacity:1;stroke:none;stroke-width:3.9000001;stroke-miterlimit:10;stroke-dasharray:none;stroke-dashoffset:0;stroke-opacity:1"
         id="rect4971-19"
         width="1090.9647"
         height="337.39093"
         x="-565.68549"
         y="-582.06458" />
    </clipPath>
  </defs>
  <sodipodi:namedview
     inkscape:window-maximized="1"
     inkscape:window-y="33"
     inkscape:window-x="1436"
     inkscape:window-height="1047"
     inkscape:window-width="1850"
     showgrid="false"
     inkscape:current-layer="layer1"
     inkscape:document-units="px"
     inkscape:cy="54.049225"
     inkscape:cx="68.783482"
     inkscape:zoom="4"
     inkscape:pageshadow="2"
     inkscape:pageopacity="0.0"
     borderopacity="1.0"
     bordercolor="#666666"
     pagecolor="#ffffff"
     id="base"
     showguides="true"
     inkscape:guide-bbox="true"
     inkscape:snap-global="true"
     inkscape:snap-bbox="true"
     inkscape:bbox-paths="true"
     inkscape:bbox-nodes="true"
     inkscape:snap-bbox-edge-midpoints="true"
     inkscape:snap-bbox-midpoints="true"
     inkscape:snap-intersection-paths="true"
     inkscape:object-paths="true"
     inkscape:object-nodes="true"
     inkscape:snap-smooth-nodes="true"
     inkscape:snap-midpoints="true"
     inkscape:snap-object-midpoints="true"
     inkscape:snap-center="true"
     units="px">
    <sodipodi:guide
       position="0,623.31462"
       orientation="1,0"
       id="guide4211"
       inkscape:label=""
       inkscape:color="rgb(0,0,255)" />
    <sodipodi:guide
       position="150,637.41257"
       orientation="1,0"
       id="guide4213"
       inkscape:label=""
       inkscape:color="rgb(0,0,255)" />
    <sodipodi:guide
       position="9.5017475,0"
       orientation="0,1"
       id="guide4215"
       inkscape:label=""
       inkscape:color="rgb(0,0,255)" />
    <sodipodi:guide
       position="0.061000001,150"
       orientation="0,1"
       id="guide4227"
       inkscape:label=""
       inkscape:color="rgb(0,0,255)" />
    <sodipodi:guide
       position="73.185553,0"
       orientation="0,1"
       id="guide4327" />
    <sodipodi:guide
       position="133.625,66.000025"
       orientation="0,1"
       id="guide4212"
       inkscape:label=""
       inkscape:color="rgb(0,0,255)" />
    <sodipodi:guide
       position="30,122.75"
       orientation="1,6.123234e-17"
       id="guide4236"
       inkscape:label=""
       inkscape:color="rgb(0,0,255)" />
    <sodipodi:guide
       position="120,35.25"
       orientation="1,0"
       id="guide4238"
       inkscape:label=""
       inkscape:color="rgb(0,0,255)" />
    <sodipodi:guide
       position="75,75.000025"
       orientation="1,0"
       id="guide4313" />
    <sodipodi:guide
       position="75,122.50003"
       orientation="0,1"
       id="guide4471" />
    <sodipodi:guide
       position="90.000001,101.25"
       orientation="1,0"
       id="guide4473" />
    <sodipodi:guide
       position="82.500002,122.50006"
       orientation="1,-2.6058614e-08"
       id="guide4475" />
    <sodipodi:guide
       position="60.000001,100.5"
       orientation="1,0"
       id="guide4492" />
    <sodipodi:guide
       position="67.500001,122.50003"
       orientation="1,0"
       id="guide4496" />
  </sodipodi:namedview>
  <metadata
     id="metadata7">
    <rdf:RDF>
      <cc:Work
         rdf:about="">
        <dc:format>image/svg+xml</dc:format>
        <dc:type
           rdf:resource="http://purl.org/dc/dcmitype/StillImage" />
        <dc:title />
      </cc:Work>
    </rdf:RDF>
  </metadata>
  <g
     inkscape:label="Layer 1"
     inkscape:groupmode="layer"
     id="layer1"
     transform="translate(0,-902.36219)">
    <g
       id="g4300"
       inkscape:transform-center-y="-83.863402"
       transform="matrix(0.70154303,0.71262709,-0.71262709,0.70154303,704.71041,270.01262)"
       inkscape:transform-center-x="-85.041471">
      <g
         id="g4309"
         inkscape:transform-center-x="-52.518036"
         inkscape:transform-center-y="59.764563"
         transform="matrix(-0.07224602,0.99738685,-0.99738685,-0.07224602,926.57908,931.62045)">
        <g
           id="g4296"
           transform="matrix(0.22283508,0.83207207,-0.83207207,0.22283508,707.58591,614.58872)"
           inkscape:transform-center-y="24.386396"
           inkscape:transform-center-x="16.621298" />
      </g>
    </g>
    <path
       style="opacity:1;fill:#000000;fill-opacity:1;stroke:none;stroke-width:3.9000001;stroke-miterlimit:10;stroke-dasharray:none;stroke-dashoffset:0;stroke-opacity:1"
       d="M 75 0 A 12.5 12.5 0 0 0 62.5 12.5 A 12.5 12.5 0 0 0 75 25 A 12.5 12.5 0 0 0 87.5 12.5 A 12.5 12.5 0 0 0 75 0 z M 60 27.5 L 60 27.505859 C 56.856451 27.497897 53.936797 29.474333 52.882812 32.626953 L 37.822266 77.675781 C 36.504844 81.616393 38.616028 85.848594 42.556641 87.166016 C 46.497253 88.483438 50.729453 86.372253 52.046875 82.431641 L 54.095703 76.300781 C 54.299311 75.405326 54.58898 74.545249 54.957031 73.726562 L 60 58.642578 L 60 67.841797 C 62.156006 66.441183 64.72664 65.621094 67.5 65.621094 C 70.27336 65.621094 72.843994 66.441183 75 67.841797 C 77.155966 66.441223 79.72664 65.621094 82.5 65.621094 C 85.27336 65.621094 87.843994 66.441183 90 67.841797 L 90 58.642578 L 95.042969 73.726562 C 95.41102 74.545249 95.700689 75.405326 95.904297 76.300781 L 97.953125 82.431641 C 99.270547 86.372253 103.50275 88.483438 107.44336 87.166016 C 111.38397 85.848594 113.49516 81.616393 112.17773 77.675781 L 97.117188 32.626953 C 96.063204 29.474333 93.143549 27.497897 90 27.505859 L 90 27.5 L 60 27.5 z M 67.5 73 C 63.345 73 60 76.345 60 80.5 L 60 128 C 60 132.155 63.345 135.5 67.5 135.5 C 71.655 135.5 75 132.155 75 128 C 75 132.155 78.345 135.5 82.5 135.5 C 86.655 135.5 90 132.155 90 128 L 90 80.5 C 90 76.345 86.655 73 82.5 73 C 78.345 73 75 76.345 75 80.5 C 75 76.345 71.655 73 67.5 73 z M 7.5 84 C 3.345 84 0 87.345 0 91.5 C 0 95.655 3.345 99 7.5 99 L 25 99 L 25 130.53516 C 25 130.79687 25.051853 131.04481 25.134766 131.27734 A 10 10 0 0 0 20 140 A 10 10 0 0 0 30 150 A 10 10 0 0 0 40 140 A 10 10 0 0 0 34.867188 131.26953 C 34.948397 131.03911 35 130.79404 35 130.53516 L 35 123.37109 L 53.740234 123.37109 L 53.740234 113.37109 L 35 113.37109 L 35 99 L 53.740234 99 L 53.740234 89.130859 C 50.966338 93.084325 45.850925 94.916004 41.025391 93.302734 C 36.764811 91.878341 33.947961 88.170384 33.455078 84 L 7.5 84 z M 117.06641 84 C 116.57348 88.170327 113.75858 91.878357 109.49805 93.302734 C 104.35227 95.023067 98.873379 92.828847 96.259766 88.318359 L 96.259766 99 L 115 99 L 115 113.37109 L 96.259766 113.37109 L 96.259766 123.37109 L 115 123.37109 L 115 131.35547 A 10 10 0 0 0 110 140 A 10 10 0 0 0 120 150 A 10 10 0 0 0 130 140 A 10 10 0 0 0 125 131.34961 L 125 99 L 142.5 99 C 146.655 99 150 95.655 150 91.5 C 150 87.345 146.655 84 142.5 84 L 117.06641 84 z "
       id="rect4217"
       transform="translate(0,902.36219)" />
    <rect
       style="opacity:1;fill:#ffffff;fill-opacity:1;stroke:none;stroke-width:3.9000001;stroke-miterlimit:10;stroke-dasharray:none;stroke-dashoffset:0;stroke-opacity:1"
       id="rect4217-9-7-0"
       width="98"
       height="27.52"
       x="847.48718"
       y="44.489998"
       ry="13.76"
       transform="matrix(0,1,-1,0,0,0)" />
  </g>
</svg>
