<?xml version="1.0" encoding="UTF-8" standalone="no"?>
<!-- Created with Inkscape (http://www.inkscape.org/) -->

<svg
   xmlns:dc="http://purl.org/dc/elements/1.1/"
   xmlns:cc="http://creativecommons.org/ns#"
   xmlns:rdf="http://www.w3.org/1999/02/22-rdf-syntax-ns#"
   xmlns:svg="http://www.w3.org/2000/svg"
   xmlns="http://www.w3.org/2000/svg"
   xmlns:sodipodi="http://sodipodi.sourceforge.net/DTD/sodipodi-0.dtd"
   xmlns:inkscape="http://www.inkscape.org/namespaces/inkscape"
   sodipodi:docname="icon-cursos.svg"
   inkscape:version="0.91 r13725"
   version="1.1"
   id="svg2"
   viewBox="0 0 150 150"
   height="150"
   width="150">
  <defs
     id="defs4">
    <clipPath
       clipPathUnits="userSpaceOnUse"
       id="clipPath4969">
      <rect
         style="opacity:1;fill:#3bb3c2;fill-opacity:1;stroke:none;stroke-width:3.9000001;stroke-miterlimit:10;stroke-dasharray:none;stroke-dashoffset:0;stroke-opacity:1"
         id="rect4971"
         width="1090.9647"
         height="337.39093"
         x="-565.68549"
         y="-582.06458" />
    </clipPath>
    <clipPath
       clipPathUnits="userSpaceOnUse"
       id="clipPath4969-9">
      <rect
         style="opacity:1;fill:#3bb3c2;fill-opacity:1;stroke:none;stroke-width:3.9000001;stroke-miterlimit:10;stroke-dasharray:none;stroke-dashoffset:0;stroke-opacity:1"
         id="rect4971-1"
         width="1090.9647"
         height="337.39093"
         x="-565.68549"
         y="-582.06458" />
    </clipPath>
    <clipPath
       clipPathUnits="userSpaceOnUse"
       id="clipPath4969-93">
      <rect
         style="opacity:1;fill:#3bb3c2;fill-opacity:1;stroke:none;stroke-width:3.9000001;stroke-miterlimit:10;stroke-dasharray:none;stroke-dashoffset:0;stroke-opacity:1"
         id="rect4971-6"
         width="1090.9647"
         height="337.39093"
         x="-565.68549"
         y="-582.06458" />
    </clipPath>
    <clipPath
       clipPathUnits="userSpaceOnUse"
       id="clipPath4969-6">
      <rect
         style="opacity:1;fill:#3bb3c2;fill-opacity:1;stroke:none;stroke-width:3.9000001;stroke-miterlimit:10;stroke-dasharray:none;stroke-dashoffset:0;stroke-opacity:1"
         id="rect4971-18"
         width="1090.9647"
         height="337.39093"
         x="-565.68549"
         y="-582.06458" />
    </clipPath>
    <clipPath
       clipPathUnits="userSpaceOnUse"
       id="clipPath4969-2">
      <rect
         style="opacity:1;fill:#3bb3c2;fill-opacity:1;stroke:none;stroke-width:3.9000001;stroke-miterlimit:10;stroke-dasharray:none;stroke-dashoffset:0;stroke-opacity:1"
         id="rect4971-3"
         width="1090.9647"
         height="337.39093"
         x="-565.68549"
         y="-582.06458" />
    </clipPath>
    <clipPath
       clipPathUnits="userSpaceOnUse"
       id="clipPath4969-97">
      <rect
         style="opacity:1;fill:#3bb3c2;fill-opacity:1;stroke:none;stroke-width:3.9000001;stroke-miterlimit:10;stroke-dasharray:none;stroke-dashoffset:0;stroke-opacity:1"
         id="rect4971-36"
         width="1090.9647"
         height="337.39093"
         x="-565.68549"
         y="-582.06458" />
    </clipPath>
    <clipPath
       clipPathUnits="userSpaceOnUse"
       id="clipPath4969-3">
      <rect
         style="opacity:1;fill:#3bb3c2;fill-opacity:1;stroke:none;stroke-width:3.9000001;stroke-miterlimit:10;stroke-dasharray:none;stroke-dashoffset:0;stroke-opacity:1"
         id="rect4971-19"
         width="1090.9647"
         height="337.39093"
         x="-565.68549"
         y="-582.06458" />
    </clipPath>
  </defs>
  <sodipodi:namedview
     inkscape:window-maximized="1"
     inkscape:window-y="33"
     inkscape:window-x="1436"
     inkscape:window-height="1047"
     inkscape:window-width="1850"
     showgrid="false"
     inkscape:current-layer="layer1"
     inkscape:document-units="px"
     inkscape:cy="125.33433"
     inkscape:cx="49.411251"
     inkscape:zoom="2.8284271"
     inkscape:pageshadow="2"
     inkscape:pageopacity="0.0"
     borderopacity="1.0"
     bordercolor="#666666"
     pagecolor="#ffffff"
     id="base"
     showguides="true"
     inkscape:guide-bbox="true"
     inkscape:snap-global="true"
     inkscape:snap-bbox="true"
     inkscape:bbox-paths="true"
     inkscape:bbox-nodes="true"
     inkscape:snap-bbox-edge-midpoints="true"
     inkscape:snap-bbox-midpoints="true"
     inkscape:snap-intersection-paths="true"
     inkscape:object-paths="true"
     inkscape:object-nodes="true"
     inkscape:snap-smooth-nodes="true"
     inkscape:snap-midpoints="true"
     inkscape:snap-object-midpoints="true"
     inkscape:snap-center="true"
     units="px">
    <sodipodi:guide
       position="0,623.31462"
       orientation="1,0"
       id="guide4211"
       inkscape:label=""
       inkscape:color="rgb(0,0,255)" />
    <sodipodi:guide
       position="150,637.41257"
       orientation="1,0"
       id="guide4213"
       inkscape:label=""
       inkscape:color="rgb(0,0,255)" />
    <sodipodi:guide
       position="9.5017475,0"
       orientation="0,1"
       id="guide4215"
       inkscape:label=""
       inkscape:color="rgb(0,0,255)" />
    <sodipodi:guide
       position="0.061000001,150"
       orientation="0,1"
       id="guide4227"
       inkscape:label=""
       inkscape:color="rgb(0,0,255)" />
    <sodipodi:guide
       position="73.185553,0"
       orientation="0,1"
       id="guide4327" />
  </sodipodi:namedview>
  <metadata
     id="metadata7">
    <rdf:RDF>
      <cc:Work
         rdf:about="">
        <dc:format>image/svg+xml</dc:format>
        <dc:type
           rdf:resource="http://purl.org/dc/dcmitype/StillImage" />
        <dc:title />
      </cc:Work>
    </rdf:RDF>
  </metadata>
  <g
     inkscape:label="Layer 1"
     inkscape:groupmode="layer"
     id="layer1"
     transform="translate(0,-902.36219)">
    <path
       style="opacity:1;fill:#000000;fill-opacity:1;stroke:none;stroke-width:3.9000001;stroke-miterlimit:10;stroke-dasharray:none;stroke-dashoffset:0;stroke-opacity:1"
       d="M 32.75 0 C 25.6865 0 20 5.6865 20 12.75 L 20 15.818359 A 17.5 17.5 0 0 1 25.21875 15 A 17.5 17.5 0 0 1 30.242188 15.744141 C 31.076487 12.437481 34.050047 10 37.623047 10 L 132.37695 10 C 136.60035 10 140 13.40159 140 17.625 L 140 62.376953 C 140 66.600363 136.60035 70 132.37695 70 L 47.636719 70 L 47.636719 80 L 137.25 80 C 144.3135 80 150 74.3135 150 67.25 L 150 12.75 C 150 5.6865 144.3135 0 137.25 0 L 32.75 0 z M 25.21875 20 A 12.5 12.5 0 0 0 12.71875 32.5 A 12.5 12.5 0 0 0 25.21875 45 A 12.5 12.5 0 0 0 37.71875 32.5 A 12.5 12.5 0 0 0 25.21875 20 z M 7.5 50 C 3.345 50 0 53.345 0 57.5 L 0 92.5 C 0 96.655 3.345 100 7.5 100 C 8.4615 100 9.37535 99.815081 10.21875 99.488281 L 10.21875 140.80664 C 10.21875 145.90014 14.320563 150 19.414062 150 L 31.025391 150 C 36.118891 150 40.21875 145.90014 40.21875 140.80664 L 40.21875 65 L 67.71875 65 C 71.87375 65 75.21875 61.655 75.21875 57.5 C 75.21875 53.345 71.87375 50 67.71875 50 L 32.71875 50 C 32.44405 50 32.175003 50.016422 31.908203 50.044922 C 31.617703 50.017522 31.323291 50 31.025391 50 L 25.21875 50 L 19.414062 50 L 7.5019531 50 L 7.5 50 z M 75.5 89 A 12.5 12.5 0 0 0 63 101.5 A 12.5 12.5 0 0 0 75.5 114 A 12.5 12.5 0 0 0 88 101.5 A 12.5 12.5 0 0 0 75.5 89 z M 124.25 89 A 12.5 12.5 0 0 0 111.75 101.5 A 12.5 12.5 0 0 0 124.25 114 A 12.5 12.5 0 0 0 136.75 101.5 A 12.5 12.5 0 0 0 124.25 89 z M 68.554688 119.5 C 64.092661 119.5 60.5 123.09266 60.5 127.55469 L 60.5 141.94727 C 60.5 146.40929 64.092661 150 68.554688 150 L 82.445312 150 C 86.907339 150 90.5 146.40929 90.5 141.94727 L 90.5 127.55469 C 90.5 123.09266 86.907339 119.5 82.445312 119.5 L 68.554688 119.5 z M 117.30469 119.5 C 112.84266 119.5 109.25 123.09266 109.25 127.55469 L 109.25 141.94727 C 109.25 146.40929 112.84266 150 117.30469 150 L 131.19531 150 C 135.65734 150 139.25 146.40929 139.25 141.94727 L 139.25 127.55469 C 139.25 123.09266 135.65734 119.5 131.19531 119.5 L 117.30469 119.5 z "
       transform="translate(0,902.36219)"
       id="rect4313-6" />
    <g
       id="g4300"
       inkscape:transform-center-y="-83.863402"
       transform="matrix(0.70154303,0.71262709,-0.71262709,0.70154303,704.71041,270.01262)"
       inkscape:transform-center-x="-85.041471">
      <g
         id="g4309"
         inkscape:transform-center-x="-52.518036"
         inkscape:transform-center-y="59.764563"
         transform="matrix(-0.07224602,0.99738685,-0.99738685,-0.07224602,926.57908,931.62045)">
        <g
           id="g4296"
           transform="matrix(0.22283508,0.83207207,-0.83207207,0.22283508,707.58591,614.58872)"
           inkscape:transform-center-y="24.386396"
           inkscape:transform-center-x="16.621298" />
      </g>
    </g>
  </g>
</svg>
