<?xml version="1.0" encoding="UTF-8" standalone="no"?>
<!-- Created with Inkscape (http://www.inkscape.org/) -->

<svg
   xmlns:dc="http://purl.org/dc/elements/1.1/"
   xmlns:cc="http://creativecommons.org/ns#"
   xmlns:rdf="http://www.w3.org/1999/02/22-rdf-syntax-ns#"
   xmlns:svg="http://www.w3.org/2000/svg"
   xmlns="http://www.w3.org/2000/svg"
   xmlns:sodipodi="http://sodipodi.sourceforge.net/DTD/sodipodi-0.dtd"
   xmlns:inkscape="http://www.inkscape.org/namespaces/inkscape"
   sodipodi:docname="icon-maquinas.svg"
   inkscape:version="0.91 r13725"
   version="1.1"
   id="svg2"
   viewBox="0 0 150 150"
   height="150"
   width="150">
  <defs
     id="defs4">
    <clipPath
       clipPathUnits="userSpaceOnUse"
       id="clipPath4969">
      <rect
         style="opacity:1;fill:#3bb3c2;fill-opacity:1;stroke:none;stroke-width:3.9000001;stroke-miterlimit:10;stroke-dasharray:none;stroke-dashoffset:0;stroke-opacity:1"
         id="rect4971"
         width="1090.9647"
         height="337.39093"
         x="-565.68549"
         y="-582.06458" />
    </clipPath>
    <clipPath
       clipPathUnits="userSpaceOnUse"
       id="clipPath4969-9">
      <rect
         style="opacity:1;fill:#3bb3c2;fill-opacity:1;stroke:none;stroke-width:3.9000001;stroke-miterlimit:10;stroke-dasharray:none;stroke-dashoffset:0;stroke-opacity:1"
         id="rect4971-1"
         width="1090.9647"
         height="337.39093"
         x="-565.68549"
         y="-582.06458" />
    </clipPath>
    <clipPath
       clipPathUnits="userSpaceOnUse"
       id="clipPath4969-93">
      <rect
         style="opacity:1;fill:#3bb3c2;fill-opacity:1;stroke:none;stroke-width:3.9000001;stroke-miterlimit:10;stroke-dasharray:none;stroke-dashoffset:0;stroke-opacity:1"
         id="rect4971-6"
         width="1090.9647"
         height="337.39093"
         x="-565.68549"
         y="-582.06458" />
    </clipPath>
    <clipPath
       clipPathUnits="userSpaceOnUse"
       id="clipPath4969-6">
      <rect
         style="opacity:1;fill:#3bb3c2;fill-opacity:1;stroke:none;stroke-width:3.9000001;stroke-miterlimit:10;stroke-dasharray:none;stroke-dashoffset:0;stroke-opacity:1"
         id="rect4971-18"
         width="1090.9647"
         height="337.39093"
         x="-565.68549"
         y="-582.06458" />
    </clipPath>
    <clipPath
       clipPathUnits="userSpaceOnUse"
       id="clipPath4969-2">
      <rect
         style="opacity:1;fill:#3bb3c2;fill-opacity:1;stroke:none;stroke-width:3.9000001;stroke-miterlimit:10;stroke-dasharray:none;stroke-dashoffset:0;stroke-opacity:1"
         id="rect4971-3"
         width="1090.9647"
         height="337.39093"
         x="-565.68549"
         y="-582.06458" />
    </clipPath>
    <clipPath
       clipPathUnits="userSpaceOnUse"
       id="clipPath4969-97">
      <rect
         style="opacity:1;fill:#3bb3c2;fill-opacity:1;stroke:none;stroke-width:3.9000001;stroke-miterlimit:10;stroke-dasharray:none;stroke-dashoffset:0;stroke-opacity:1"
         id="rect4971-36"
         width="1090.9647"
         height="337.39093"
         x="-565.68549"
         y="-582.06458" />
    </clipPath>
    <clipPath
       clipPathUnits="userSpaceOnUse"
       id="clipPath4969-3">
      <rect
         style="opacity:1;fill:#3bb3c2;fill-opacity:1;stroke:none;stroke-width:3.9000001;stroke-miterlimit:10;stroke-dasharray:none;stroke-dashoffset:0;stroke-opacity:1"
         id="rect4971-19"
         width="1090.9647"
         height="337.39093"
         x="-565.68549"
         y="-582.06458" />
    </clipPath>
  </defs>
  <sodipodi:namedview
     inkscape:window-maximized="1"
     inkscape:window-y="33"
     inkscape:window-x="1436"
     inkscape:window-height="1047"
     inkscape:window-width="1850"
     showgrid="false"
     inkscape:current-layer="layer1"
     inkscape:document-units="px"
     inkscape:cy="91.995"
     inkscape:cx="45.024653"
     inkscape:zoom="5.6568542"
     inkscape:pageshadow="2"
     inkscape:pageopacity="0.0"
     borderopacity="1.0"
     bordercolor="#666666"
     pagecolor="#ffffff"
     id="base"
     showguides="true"
     inkscape:guide-bbox="true"
     inkscape:snap-global="true"
     inkscape:snap-bbox="true"
     inkscape:bbox-paths="true"
     inkscape:bbox-nodes="true"
     inkscape:snap-bbox-edge-midpoints="true"
     inkscape:snap-bbox-midpoints="true"
     inkscape:snap-intersection-paths="true"
     inkscape:object-paths="true"
     inkscape:object-nodes="true"
     inkscape:snap-smooth-nodes="true"
     inkscape:snap-midpoints="true"
     inkscape:snap-object-midpoints="true"
     inkscape:snap-center="true"
     units="px">
    <sodipodi:guide
       position="0,623.31462"
       orientation="1,0"
       id="guide4211"
       inkscape:label=""
       inkscape:color="rgb(0,0,255)" />
    <sodipodi:guide
       position="150,637.41257"
       orientation="1,0"
       id="guide4213"
       inkscape:label=""
       inkscape:color="rgb(0,0,255)" />
    <sodipodi:guide
       position="9.5017475,0"
       orientation="0,1"
       id="guide4215"
       inkscape:label=""
       inkscape:color="rgb(0,0,255)" />
    <sodipodi:guide
       position="0.061000001,150"
       orientation="0,1"
       id="guide4227"
       inkscape:label=""
       inkscape:color="rgb(0,0,255)" />
    <sodipodi:guide
       position="73.185553,0"
       orientation="0,1"
       id="guide4327" />
  </sodipodi:namedview>
  <metadata
     id="metadata7">
    <rdf:RDF>
      <cc:Work
         rdf:about="">
        <dc:format>image/svg+xml</dc:format>
        <dc:type
           rdf:resource="http://purl.org/dc/dcmitype/StillImage" />
        <dc:title />
      </cc:Work>
    </rdf:RDF>
  </metadata>
  <g
     inkscape:label="Layer 1"
     inkscape:groupmode="layer"
     id="layer1"
     transform="translate(0,-902.36218)">
    <path
       style="fill:#000000;fill-rule:evenodd;stroke:none;stroke-width:1px;stroke-linecap:butt;stroke-linejoin:miter;stroke-opacity:1"
       d="M 86.318359 0.00390625 C 81.569133 -0.10258375 76.978856 1.7179812 73.59375 5.0507812 C 66.676668 11.860531 66.590531 22.98928 73.400391 29.90625 C 80.210486 36.82288 91.337302 36.909739 98.253906 30.099609 C 105.17098 23.289859 105.25908 12.161111 98.449219 5.2441406 C 95.241549 1.9858006 90.889503 0.10654625 86.318359 0.00390625 z M 58.5 24.716797 C 57.699515 24.712797 56.897468 25.012514 56.279297 25.621094 L 39.271484 42.361328 C 38.0351 43.578468 38.022077 45.554586 39.238281 46.791016 L 55.978516 63.798828 C 57.195658 65.035248 59.171862 65.049567 60.408203 63.841797 L 77.416016 47.099609 C 78.652401 45.882459 78.667367 43.908305 77.451172 42.671875 L 60.708984 25.662109 C 60.100414 25.043679 59.300485 24.731039 58.5 24.724609 L 58.5 24.716797 z M 110.70703 28.673828 C 109.94101 28.613828 109.14973 28.846056 108.51562 29.384766 L 93.976562 41.763672 C 92.708336 42.843672 92.554981 44.73143 93.634766 46 L 109.26953 64.363281 C 110.34919 65.631851 112.23958 65.783555 113.50781 64.703125 L 128.04688 52.326172 C 129.3151 51.246602 129.46655 49.356031 128.38672 48.087891 L 112.75391 29.724609 C 112.21412 29.090749 111.47306 28.735538 110.70703 28.673828 z M 28.976562 53.552734 C 17.883439 53.552734 8.8906935 62.545552 8.890625 73.638672 C 8.8906935 84.731792 17.883438 93.724609 28.976562 93.724609 C 40.069671 93.724589 49.062432 84.731782 49.0625 73.638672 C 49.062432 62.545562 40.06967 53.552754 28.976562 53.552734 z M 134.39258 59.537109 C 130.84133 59.555709 127.40929 60.828899 124.70508 63.130859 C 118.36933 68.524459 117.60773 78.031968 123.00195 84.367188 C 128.39545 90.701568 137.90147 91.465206 144.23633 86.072266 C 150.57096 80.678816 151.33463 71.170768 145.94141 64.835938 C 143.0615 61.452648 138.83555 59.514079 134.39258 59.537109 z M 109.56641 74.248047 L 109.56641 74.263672 C 102.26172 74.306572 94.375424 77.139916 90.771484 86.253906 C 86.919445 95.995756 89.256637 102.60425 91.976562 106.81445 C 96.583059 113.94505 97.45678 113.85652 95.078125 107.10742 C 92.467141 99.699922 96.479337 87.817741 108.54297 85.212891 C 110.52708 84.784321 114.0608 85.113156 115.01172 82.753906 L 116.23047 79.628906 C 118.01474 75.050056 112.74767 74.366436 111.01758 74.291016 C 110.53723 74.248116 110.05339 74.248047 109.56641 74.248047 z M 135.3125 92.716797 C 134.70015 92.759697 134.01133 92.983142 133.23828 93.482422 L 130.42383 95.306641 C 128.30643 96.714921 129.3443 100.11133 129.32617 102.14062 C 129.21602 114.48222 118.39006 120.81601 110.60742 119.75781 C 103.51753 118.79401 103.60633 119.66643 111.52148 122.73633 C 116.19497 124.54793 123.14157 125.49956 131.90234 119.75586 C 140.64523 114.02416 141.40531 104.96474 139.52148 97.505859 C 139.17691 96.141719 137.96604 92.572797 135.3125 92.716797 z M 14.730469 99.785156 C 9.2887741 99.785156 7.1986369 102.63075 6.4609375 106.81445 L 0.0859375 142.96875 C -0.46889055 146.11575 1.6704857 150 5.8769531 150 L 52.074219 150 C 55.531244 150 58.636876 147.34535 57.865234 142.96875 L 51.490234 106.81445 C 50.798091 102.88925 47.001257 99.785156 43.220703 99.785156 L 14.730469 99.785156 z "
       id="path4171"
       transform="translate(0,902.36218)" />
    <g
       id="g4300"
       inkscape:transform-center-y="-83.863402"
       transform="matrix(0.70154303,0.71262709,-0.71262709,0.70154303,704.71041,270.01262)"
       inkscape:transform-center-x="-85.041471">
      <g
         id="g4309"
         inkscape:transform-center-x="-52.518036"
         inkscape:transform-center-y="59.764563"
         transform="matrix(-0.07224602,0.99738685,-0.99738685,-0.07224602,926.57908,931.62045)">
        <g
           id="g4296"
           transform="matrix(0.22283508,0.83207207,-0.83207207,0.22283508,707.58591,614.58872)"
           inkscape:transform-center-y="24.386396"
           inkscape:transform-center-x="16.621298" />
      </g>
    </g>
    <rect
       style="opacity:1;fill:#ffffff;fill-opacity:1;stroke:none;stroke-width:3.9000001;stroke-miterlimit:10;stroke-dasharray:none;stroke-dashoffset:0;stroke-opacity:1"
       id="rect4217-9-7-0"
       width="98"
       height="27.52"
       x="847.48718"
       y="44.489998"
       ry="13.76"
       transform="matrix(0,1,-1,0,0,0)" />
  </g>
</svg>
