<?xml version="1.0" encoding="UTF-8" standalone="no"?>
<!-- Created with Inkscape (http://www.inkscape.org/) -->

<svg
   xmlns:dc="http://purl.org/dc/elements/1.1/"
   xmlns:cc="http://creativecommons.org/ns#"
   xmlns:rdf="http://www.w3.org/1999/02/22-rdf-syntax-ns#"
   xmlns:svg="http://www.w3.org/2000/svg"
   xmlns="http://www.w3.org/2000/svg"
   xmlns:sodipodi="http://sodipodi.sourceforge.net/DTD/sodipodi-0.dtd"
   xmlns:inkscape="http://www.inkscape.org/namespaces/inkscape"
   sodipodi:docname="icon-conssltoria.svg"
   inkscape:version="0.91 r13725"
   version="1.1"
   id="svg2"
   viewBox="0 0 150.00001 150.00001"
   height="150"
   width="150">
  <defs
     id="defs4">
    <clipPath
       clipPathUnits="userSpaceOnUse"
       id="clipPath4969">
      <rect
         style="opacity:1;fill:#3bb3c2;fill-opacity:1;stroke:none;stroke-width:3.9000001;stroke-miterlimit:10;stroke-dasharray:none;stroke-dashoffset:0;stroke-opacity:1"
         id="rect4971"
         width="1090.9647"
         height="337.39093"
         x="-565.68549"
         y="-582.06458" />
    </clipPath>
    <clipPath
       clipPathUnits="userSpaceOnUse"
       id="clipPath4969-9">
      <rect
         style="opacity:1;fill:#3bb3c2;fill-opacity:1;stroke:none;stroke-width:3.9000001;stroke-miterlimit:10;stroke-dasharray:none;stroke-dashoffset:0;stroke-opacity:1"
         id="rect4971-1"
         width="1090.9647"
         height="337.39093"
         x="-565.68549"
         y="-582.06458" />
    </clipPath>
    <clipPath
       clipPathUnits="userSpaceOnUse"
       id="clipPath4969-93">
      <rect
         style="opacity:1;fill:#3bb3c2;fill-opacity:1;stroke:none;stroke-width:3.9000001;stroke-miterlimit:10;stroke-dasharray:none;stroke-dashoffset:0;stroke-opacity:1"
         id="rect4971-6"
         width="1090.9647"
         height="337.39093"
         x="-565.68549"
         y="-582.06458" />
    </clipPath>
    <clipPath
       clipPathUnits="userSpaceOnUse"
       id="clipPath4969-6">
      <rect
         style="opacity:1;fill:#3bb3c2;fill-opacity:1;stroke:none;stroke-width:3.9000001;stroke-miterlimit:10;stroke-dasharray:none;stroke-dashoffset:0;stroke-opacity:1"
         id="rect4971-18"
         width="1090.9647"
         height="337.39093"
         x="-565.68549"
         y="-582.06458" />
    </clipPath>
    <clipPath
       clipPathUnits="userSpaceOnUse"
       id="clipPath4969-2">
      <rect
         style="opacity:1;fill:#3bb3c2;fill-opacity:1;stroke:none;stroke-width:3.9000001;stroke-miterlimit:10;stroke-dasharray:none;stroke-dashoffset:0;stroke-opacity:1"
         id="rect4971-3"
         width="1090.9647"
         height="337.39093"
         x="-565.68549"
         y="-582.06458" />
    </clipPath>
    <clipPath
       clipPathUnits="userSpaceOnUse"
       id="clipPath4969-97">
      <rect
         style="opacity:1;fill:#3bb3c2;fill-opacity:1;stroke:none;stroke-width:3.9000001;stroke-miterlimit:10;stroke-dasharray:none;stroke-dashoffset:0;stroke-opacity:1"
         id="rect4971-36"
         width="1090.9647"
         height="337.39093"
         x="-565.68549"
         y="-582.06458" />
    </clipPath>
    <clipPath
       clipPathUnits="userSpaceOnUse"
       id="clipPath4969-3">
      <rect
         style="opacity:1;fill:#3bb3c2;fill-opacity:1;stroke:none;stroke-width:3.9000001;stroke-miterlimit:10;stroke-dasharray:none;stroke-dashoffset:0;stroke-opacity:1"
         id="rect4971-19"
         width="1090.9647"
         height="337.39093"
         x="-565.68549"
         y="-582.06458" />
    </clipPath>
  </defs>
  <sodipodi:namedview
     inkscape:window-maximized="1"
     inkscape:window-y="33"
     inkscape:window-x="1436"
     inkscape:window-height="1047"
     inkscape:window-width="1850"
     showgrid="false"
     inkscape:current-layer="layer1"
     inkscape:document-units="px"
     inkscape:cy="54.176785"
     inkscape:cx="125.26086"
     inkscape:zoom="4"
     inkscape:pageshadow="2"
     inkscape:pageopacity="0.0"
     borderopacity="1.0"
     bordercolor="#666666"
     pagecolor="#ffffff"
     id="base"
     showguides="false"
     inkscape:guide-bbox="true"
     inkscape:snap-global="true"
     inkscape:snap-bbox="true"
     inkscape:bbox-paths="true"
     inkscape:bbox-nodes="true"
     inkscape:snap-bbox-edge-midpoints="true"
     inkscape:snap-bbox-midpoints="true"
     inkscape:snap-intersection-paths="true"
     inkscape:object-paths="true"
     inkscape:object-nodes="true"
     inkscape:snap-smooth-nodes="true"
     inkscape:snap-midpoints="true"
     inkscape:snap-object-midpoints="true"
     inkscape:snap-center="true"
     units="px">
    <sodipodi:guide
       position="0,623.31462"
       orientation="1,0"
       id="guide4211"
       inkscape:label=""
       inkscape:color="rgb(0,0,255)" />
    <sodipodi:guide
       position="150,637.41257"
       orientation="1,0"
       id="guide4213"
       inkscape:label=""
       inkscape:color="rgb(0,0,255)" />
    <sodipodi:guide
       position="9.5017475,0"
       orientation="0,1"
       id="guide4215"
       inkscape:label=""
       inkscape:color="rgb(0,0,255)" />
    <sodipodi:guide
       position="0.061000001,150"
       orientation="0,1"
       id="guide4227"
       inkscape:label=""
       inkscape:color="rgb(0,0,255)" />
    <sodipodi:guide
       position="73.185553,0"
       orientation="0,1"
       id="guide4327" />
  </sodipodi:namedview>
  <metadata
     id="metadata7">
    <rdf:RDF>
      <cc:Work
         rdf:about="">
        <dc:format>image/svg+xml</dc:format>
        <dc:type
           rdf:resource="http://purl.org/dc/dcmitype/StillImage" />
        <dc:title />
      </cc:Work>
    </rdf:RDF>
  </metadata>
  <g
     inkscape:label="Layer 1"
     inkscape:groupmode="layer"
     id="layer1"
     transform="translate(0,-902.36215)">
    <g
       id="g4300"
       inkscape:transform-center-y="-83.863402"
       transform="matrix(0.70154303,0.71262709,-0.71262709,0.70154303,704.71041,270.01262)"
       inkscape:transform-center-x="-85.041471">
      <g
         id="g4309"
         inkscape:transform-center-x="-52.518036"
         inkscape:transform-center-y="59.764563"
         transform="matrix(-0.07224602,0.99738685,-0.99738685,-0.07224602,926.57908,931.62045)">
        <g
           id="g4296"
           transform="matrix(0.22283508,0.83207207,-0.83207207,0.22283508,707.58591,614.58872)"
           inkscape:transform-center-y="24.386396"
           inkscape:transform-center-x="16.621298" />
      </g>
    </g>
    <path
       style="opacity:1;fill:#000000;fill-opacity:1;stroke:none;stroke-width:3.9000001;stroke-miterlimit:10;stroke-dasharray:none;stroke-dashoffset:0;stroke-opacity:1"
       d="M 17.992188 0 C 8.0578245 0 0.060546875 7.9972778 0.060546875 17.931641 L 0.060546875 72.068359 C 0.060546875 82.002722 8.0578245 90 17.992188 90 L 18.060547 90 C 47.962739 90.2816 34.714371 100.26986 21.734375 111.63086 C 9.5928779 122.25786 31.793658 118.98087 37.972656 115.19727 C 57.911352 102.98827 70.915351 90.021 86.060547 90 L 102.12891 90 C 112.06327 90 120.06055 82.002722 120.06055 72.068359 L 120.06055 17.931641 C 120.06055 7.9972778 112.06327 -4.7369516e-15 102.12891 0 L 17.992188 0 z M 130.31055 31.431641 L 130.31055 79.019531 C 130.31055 90.340564 121.19604 99.455078 109.875 99.455078 L 101.55469 99.617188 C 85.32732 99.639499 70.570021 109.11273 52.998047 121.18164 L 52.060547 121.18164 C 52.378169 121.18464 52.662766 121.19607 52.970703 121.20117 C 52.855555 121.28027 52.746251 121.35233 52.630859 121.43164 L 58.322266 121.43164 C 79.845919 123.05348 67.690755 132.34744 55.734375 142.8125 C 43.592877 153.4395 65.793656 150.16251 71.972656 146.37891 C 90.333573 135.13602 102.81483 123.25885 116.50195 121.43164 L 132.12891 121.43164 C 142.06327 121.43164 150.06055 113.43436 150.06055 103.5 L 150.06055 49.363281 C 150.06055 39.428919 142.06327 31.431641 132.12891 31.431641 L 130.31055 31.431641 z M 27.810547 37.25 A 9.9999952 9.9999952 0 0 1 37.810547 47.25 A 9.9999952 9.9999952 0 0 1 27.810547 57.25 A 9.9999952 9.9999952 0 0 1 17.810547 47.25 A 9.9999952 9.9999952 0 0 1 27.810547 37.25 z M 59.185547 37.25 A 9.9999952 9.9999952 0 0 1 69.185547 47.25 A 9.9999952 9.9999952 0 0 1 59.185547 57.25 A 9.9999952 9.9999952 0 0 1 49.185547 47.25 A 9.9999952 9.9999952 0 0 1 59.185547 37.25 z M 90.560547 37.25 A 9.9999952 9.9999952 0 0 1 100.56055 47.25 A 9.9999952 9.9999952 0 0 1 90.560547 57.25 A 9.9999952 9.9999952 0 0 1 80.560547 47.25 A 9.9999952 9.9999952 0 0 1 90.560547 37.25 z "
       transform="translate(0,902.36215)"
       id="rect4319-3-8" />
  </g>
</svg>
